<?xml version="1.0" encoding="UTF-8" standalone="no"?>
<svg
   xmlns:dc="http://purl.org/dc/elements/1.1/"
   xmlns:cc="http://creativecommons.org/ns#"
   xmlns:rdf="http://www.w3.org/1999/02/22-rdf-syntax-ns#"
   xmlns:svg="http://www.w3.org/2000/svg"
   xmlns="http://www.w3.org/2000/svg"
   xmlns:sodipodi="http://sodipodi.sourceforge.net/DTD/sodipodi-0.dtd"
   xmlns:inkscape="http://www.inkscape.org/namespaces/inkscape"
   width="210mm"
   height="297mm"
   viewBox="0 0 210 297"
   version="1.1"
   id="svg8"
   inkscape:version="1.0.2 (e86c870879, 2021-01-15)"
   sodipodi:docname="съ.svg">
  <defs
     id="defs2">
    <style
       id="style30445">.a{fill:#404040;}</style>
  </defs>
  <sodipodi:namedview
     id="base"
     pagecolor="#ffffff"
     bordercolor="#666666"
     borderopacity="1.0"
     inkscape:pageopacity="0.0"
     inkscape:pageshadow="2"
     inkscape:zoom="0.98994949"
     inkscape:cx="301.6254"
     inkscape:cy="464.61232"
     inkscape:document-units="mm"
     inkscape:current-layer="layer1"
     inkscape:document-rotation="0"
     showgrid="false"
     inkscape:window-width="1256"
     inkscape:window-height="980"
     inkscape:window-x="1376"
     inkscape:window-y="30"
     inkscape:window-maximized="1" />
  <metadata
     id="metadata5">
    <rdf:RDF>
      <cc:Work
         rdf:about="">
        <dc:format>image/svg+xml</dc:format>
        <dc:type
           rdf:resource="http://purl.org/dc/dcmitype/StillImage" />
        <dc:title></dc:title>
      </cc:Work>
    </rdf:RDF>
  </metadata>
  <g
     inkscape:groupmode="layer"
     id="layer3"
     inkscape:label="Layer 3" />
  <g
     inkscape:label="Layer 1"
     inkscape:groupmode="layer"
     id="layer1">
    <path
       style="fill:none;stroke:#000000;stroke-width:0.749;stroke-linecap:butt;stroke-linejoin:miter;stroke-miterlimit:4;stroke-dasharray:none;stroke-opacity:1"
       d="m 17.183361,161.12501 c -3.541213,-4.78534 2.840223,-13.34779 6.067489,-16.82516 4.111824,-4.43048 12.207001,0.37174 16.749864,-2.71743 3.402338,-2.31361 0.953028,-10.78082 5.218334,-14.93756"
       id="path835"
       sodipodi:nodetypes="cssc" />
    <circle
       style="fill:#2b0000;fill-opacity:1;stroke:#000000;stroke-width:0.407596;stroke-miterlimit:4;stroke-dasharray:none"
       id="path847"
       cx="23.885138"
       cy="143.52985"
       r="1.4980834" />
    <path
       style="fill:none;stroke:#000000;stroke-width:0.823;stroke-linecap:butt;stroke-linejoin:miter;stroke-miterlimit:4;stroke-dasharray:none;stroke-opacity:1"
       d="m 80.235308,161.6667 c 11.152417,-7.05036 8.600079,8.8688 20.412162,1.48625"
       id="path26421" />
    <path
       style="fill:none;stroke:#000000;stroke-width:0.823;stroke-linecap:butt;stroke-linejoin:miter;stroke-miterlimit:4;stroke-dasharray:none;stroke-opacity:1"
       d="m 82.402402,127.58786 c 0.04605,-0.071 0.122268,-0.27785 0.169639,-0.33985 2.963082,-3.87817 8.528771,9.56047 16.560522,3.52026 1.535897,-1.15506 3.381287,-2.33045 4.154307,-3.73171"
       id="path26423"
       sodipodi:nodetypes="cssc" />
    <path
       style="fill:none;stroke:#000000;stroke-width:0.264583;stroke-linecap:butt;stroke-linejoin:miter;stroke-miterlimit:4;stroke-dasharray:2.11667, 2.11667;stroke-dashoffset:0;stroke-opacity:1"
       d="m 82.447801,127.49252 c 0,0 -0.394105,0.89762 -0.200164,1.28551 3.727565,7.45513 -1.4889,7.96573 -2.541424,14.28088 -0.682209,4.09325 1.591045,8.74987 1.591045,12.93499 0,2.21249 -1.458956,4.61328 -1.06195,5.6728"
       id="path26425"
       sodipodi:nodetypes="ccssc" />
    <path
       style="fill:none;stroke:#000000;stroke-width:0.264583;stroke-linecap:butt;stroke-linejoin:miter;stroke-miterlimit:4;stroke-dasharray:2.11667, 2.11667;stroke-dashoffset:0;stroke-opacity:1"
       d="m 103.28687,127.03656 c -0.54867,3.41968 1.86848,7.88632 -1.02337,10.77818 -4.486718,4.48671 -3.976553,13.19035 -2.566839,18.8292 0.313689,1.25475 0.479739,5.01603 1.266379,5.81426 0.37396,0.37947 -1.159805,1.66671 -0.31557,0.69475"
       id="path26427" />
    <path
       style="fill:none;stroke:#000000;stroke-width:0.823;stroke-linecap:butt;stroke-linejoin:miter;stroke-miterlimit:4;stroke-dasharray:none;stroke-opacity:1"
       d="m 126.77343,159.71822 c -3.58185,-0.12291 -6.68978,1.31745 -9.73094,3.15054 -18.329404,11.04819 42.29317,-0.17511 9.73094,-3.15054"
       id="path26439"
       sodipodi:nodetypes="csc" />
    <path
       style="fill:none;stroke:#000000;stroke-width:0.823;stroke-linecap:butt;stroke-linejoin:miter;stroke-miterlimit:4;stroke-dasharray:none;stroke-opacity:1"
       d="m 121.49229,130.51126 c 3.58185,0.12291 6.68977,-1.31745 9.73093,-3.15054 18.32941,-11.04819 -42.293161,0.17511 -9.73093,3.15054"
       id="path26439-6"
       sodipodi:nodetypes="csc" />
    <path
       style="fill:none;stroke:#000000;stroke-width:0.264583;stroke-linecap:butt;stroke-linejoin:miter;stroke-miterlimit:4;stroke-dasharray:2.11667, 2.11667;stroke-dashoffset:0;stroke-opacity:1"
       d="m 113.49944,166.15649 c 0.41571,-11.68721 2.14521,-28.17708 -1.85332,-38.18217"
       id="path26461" />
    <path
       style="fill:none;stroke:#000000;stroke-width:0.264583;stroke-linecap:butt;stroke-linejoin:miter;stroke-miterlimit:4;stroke-dasharray:2.11667, 2.11667;stroke-dashoffset:0;stroke-opacity:1"
       d="m 134.741,124.0845 c 0.18022,2.13066 0.0197,4.56674 0.11037,6.65806 0.13822,3.18644 -0.10135,5.80297 0.34147,9.16452 1.07931,8.19321 1.58728,16.31095 1.15947,23.27092"
       id="path26463"
       sodipodi:nodetypes="cssc" />
    <path
       class="a"
       d="m 66.44792,140.75115 c 0,-0.1019 0.07308,-0.15274 0.221424,-0.15274 a 0.77166866,0.77166866 0 0 1 0.235818,0.0209 0.47551174,0.47551174 0 0 1 0.124005,0.15943 6.4767025,6.4767025 0 0 0 3.390582,3.15533 5.2887535,5.2887535 0 0 0 0.830346,0.29007 c 0.157209,0.0465 0.235266,0.10628 0.235266,0.17993 0,0.0737 -0.07806,0.1339 -0.235266,0.17993 a 6.2220629,6.2220629 0 0 0 -2.497682,1.27319 6.8431621,6.8431621 0 0 0 -1.723246,2.17274 0.32051374,0.32051374 0 0 1 -0.09632,0.14562 0.60892075,0.60892075 0 0 1 -0.20759,0.0209 c -0.184888,0 -0.27678,-0.037 -0.27678,-0.11068 a 0.7428833,0.7428833 0 0 1 0.06919,-0.22141 7.2096215,7.2096215 0 0 1 1.18961,-1.70223 l 0.138401,-0.13829 H 50.560071 a 0.30058542,0.30058542 0 0 1 -0.193195,-0.27678 0.27678216,0.27678216 0 0 1 0.221425,-0.27681 h 17.865736 l 0.138399,-0.11067 a 11.403425,11.403425 0 0 1 1.618623,-0.95491 0.47551174,0.47551174 0 0 0 -0.138399,-0.0692 7.06182,7.06182 0 0 1 -1.480232,-0.88571 l -0.138399,-0.11069 h -9.03693 l -0.01381,-0.0146 h -0.02768 l -4.386998,0.0146 h -4.400835 a 0.27678216,0.27678216 0 0 1 -0.221427,-0.27678 0.30169256,0.30169256 0 0 1 0.193195,-0.27679 h 17.285603 l -0.1384,-0.1383 a 7.196336,7.196336 0 0 1 -1.190163,-1.70166 0.52976104,0.52976104 0 0 1 -0.06864,-0.19311 z"
       id="path30449"
       style="fill:#000000;fill-opacity:1;stroke-width:14.5723;stroke-miterlimit:4;stroke-dasharray:none" />
  </g>
  <g
     inkscape:groupmode="layer"
     id="layer2"
     inkscape:label="Layer 2" />
</svg>
